<?xml version="1.0" encoding="utf-8"?>
<!-- Generator: Adobe Illustrator 26.0.2, SVG Export Plug-In . SVG Version: 6.00 Build 0)  -->
<svg version="1.1" id="Layer_1" xmlns="http://www.w3.org/2000/svg" xmlns:xlink="http://www.w3.org/1999/xlink" x="0px" y="0px"
	 viewBox="0 0 612 792" style="enable-background:new 0 0 612 792;" xml:space="preserve">
<style type="text/css">
	.st0{fill:#FFFFFF;}
</style>
<g>
	<g>
		<path class="st0" d="M333.1,550.2c-4.4-0.2-8.9-0.5-13.3-0.7c-0.7-0.1-1.3-0.2-2-0.3c-5.1-0.2-10.2-0.4-15.3-0.7
			c-0.7-0.1-1.3-0.2-2-0.2c-3.5-0.1-7-0.2-10.4-0.2c-1.3-0.1-2.6-0.2-3.9-0.3c-0.3,0-0.6,0-0.9,0c-0.2,0-0.4,0-0.5,0
			c-2.9,0-5.7-0.1-8.6-0.1c-0.2,0-0.4,0-0.6,0c-0.4,0-0.9,0-1.3,0c-0.2,0-0.4,0-0.6,0c-0.4,0-0.8,0-1.3,0c-0.5-0.1-1-0.1-1.6-0.2
			c-13.7,0-27.3-0.1-41-0.1c-3.8,0-7.5,0.1-11.3,0.1c-1.3,0.1-2.6,0.2-3.9,0.3c-4.6,0.1-9.2,0.2-13.8,0.2c-0.5,0.1-1,0.1-1.6,0.2
			c-3.6,0.1-7.3,0.2-10.9,0.3c-0.2,0.1-0.4,0.1-0.6,0.2c-2.2,0.1-4.4,0.1-6.6,0.2c-1.6,0-3.2,0-4.7,0c0,0.1,0,0.3,0,0.4
			c1.6,0,3.1,0,4.7,0c5.7,0,11.4,0,17,0.1c7.5,0.1,15,0.3,22.5,0.5c7.3,0.2,14.5,0.6,21.8,0.9c5.7,0.3,11.3,0.6,17,1
			c7.7,0.6,15.4,1.2,23.2,1.8c3.3,0.3,6.7,0.6,10,0.9c7.8,0.8,15.5,1.6,23.3,2.5c2.9,0.3,5.8,1,8.7,1.3c3,0.4,6,0.6,9,1
			c6.2,0.8,12.3,1.7,18.5,2.7c8.2,1.3,16.4,2.6,24.5,4.1c8.5,1.5,16.9,3.2,25.4,4.9c17,3.5,33.8,7.5,50.5,12
			c10.2,2.8,20.4,5.8,30.6,9c9.9,3.1,19.7,6.6,29.5,10c0.5,0.2,1,0.4,1.8,0.8c-1,0.4-1.7,0.8-2.4,1.1c-21,7.8-42.1,15.6-63.1,23.4
			c-1.9,0.7-3.6,0.8-5.6,0.2c-15.5-4.6-30.9-9.1-46.4-13.5c-7.9-2.3-15.8-4.4-23.8-6.4c-14.2-3.5-28.5-7-42.8-10.3
			c-12.4-2.8-24.9-5.5-37.4-8c-10.1-2-20.2-3.7-30.4-5.5c-9.8-1.7-19.6-3.5-29.5-5.1c-5.1-0.8-10.3-1.3-15.4-2.1
			c-3.5-0.5-6.9-1.2-10.4-1.6c-3.5-0.5-6.9-0.8-10.4-1.2c-2.2-0.3-4.4-0.7-6.6-1c-7.5-0.9-15-1.9-22.5-2.7c-2.7-0.3-5.4-0.4-8.1-0.6
			c-1.4-0.1-2.8-0.4-4.2-0.6c-0.4-0.1-0.7-0.2-1.1-0.3c-2.8-0.2-5.7-0.4-8.5-0.7c-0.4-0.1-0.7-0.2-1.1-0.2
			c-12.1-0.9-24.3-1.8-36.4-2.7c-0.8-0.1-1.7-0.2-2.5-0.3c-4.8-0.2-9.5-0.4-14.3-0.7c-0.7-0.1-1.3-0.2-2-0.2
			c-3.3-0.1-6.7-0.2-10-0.3c-0.5-0.1-1-0.1-1.6-0.2c-0.4,0-0.9,0-1.3,0c-0.2,0-0.4,0-0.6,0c-0.3,0-0.6,0-0.9,0c-0.2,0-0.4,0-0.5,0
			c-3.2,0-6.3-0.1-9.5-0.1c-1.5-0.1-2.9-0.2-4.4-0.3c-0.5,0-0.9,0-1.4,0c-0.2,0-0.4,0-0.6,0c-12.6,0-25.2,0-37.8,0
			c-0.7,0.1-1.4,0.1-2,0.2c-3.2,0.1-6.3,0.1-9.5,0.2c-0.8-0.2-1.6-0.4-2.4-0.5c17.9-5.7,35.5-12.3,52.5-20.2
			c19.3-9,37.5-19.6,54.6-32.3c7.8-5.8,15.3-12.1,22.5-18.7c15.2-14,28.5-29.6,40.2-46.5c7-10.1,13.3-20.5,19-31.4
			c0.7-1.4,1.6-2.2,3.2-2.5c11.2-2.6,21.5-7.5,31.3-13.5c7.7-4.8,14.7-10.4,21.1-16.8c5.7-5.7,10.8-11.8,15.2-18.5
			c0.5-0.7,1-1.4,1.6-2.3c0.7,0.3,1.3,0.5,1.8,0.8c8.9,5.2,18,10.1,27.4,14.4c4.9,2.2,9.9,4,14.9,6.1c1.9,0.8,3.6,0.5,5.2-0.6
			c4.2-3.1,8.5-6,12.4-9.4c14.8-12.9,26.4-28.4,36.5-45.1c4.3-7.2,8.2-14.6,12.3-22c0.3-0.5,0.5-0.9,1-1.6c0.4,0.7,0.7,1.1,1,1.6
			c10.6,20.7,22.6,40.5,35.8,59.5c7.7,11.1,15.8,21.9,24.3,32.4c8.4,10.3,16.9,20.4,26.1,30c6.4,6.7,12.7,13.5,19.3,20
			c8.3,8.1,16.8,15.9,25.5,23.6c11.2,10,22.9,19.4,34.9,28.5c15.8,12,32.2,23.2,49.1,33.5c4.6,2.8,9.3,5.3,13.9,8c0,0.3,0,0.6,0,1
			c-2.2-0.8-4.4-1.5-6.5-2.3c-16.6-6.9-32.9-14.5-48.9-22.8c-16.8-8.7-33.2-18.2-49.2-28.4c-11.9-7.6-23.4-15.6-34.6-24.1
			c-10.5-8-20.9-16.4-30.5-25.5c-6.9-6.6-13.8-13.1-20.3-20c-13.4-14.2-25.3-29.5-35.5-46.1c-1.4-2.3-2.7-4.6-4.3-7.4
			c-0.7,1.1-1.2,1.8-1.6,2.5c-5.4,9.8-12.8,17.9-21.3,25c-10.7,9-22.6,16.1-35.2,22.1c-6.4,3-6.4,3.1-13.4,1.2
			c-11-3-21.5-7.1-31.2-13.3c-0.3-0.2-0.7-0.4-0.9-0.5c-3.1,3.3-6.1,6.6-9.2,9.6c-7.6,7.4-16.4,12.9-26.1,17.1
			c-4.8,2.1-9.8,3.7-15,4.9c-0.9,0.2-1.7,1.2-2.2,2c-3.2,4.6-6.2,9.3-9.6,13.7c-4.9,6.3-10,12.4-15.2,18.5c-6,7-12.7,13.3-19.5,19.4
			c-8.1,7.2-16.7,13.9-25.6,20.2c-13.1,9.2-26.9,17.3-41.4,24.1c-7.9,3.7-15.9,7-23.9,10.5c-1.1,0.5-2.3,0.9-3.4,1.4
			c0,0-0.1,0.1-0.1,0.1c0-0.1,0.1-0.1,0.1-0.2c1.1-0.2,2.2-0.4,3.3-0.6c15.8-3.5,31.1-8.7,45.9-15.1c14.2-6.1,27.7-13.5,40.5-22.2
			c9.4-6.4,18.4-13.3,26.7-21c2.6-2.5,5.2-5,7.8-7.4c0.3-0.3,0.7-0.6,1.2-0.9c-0.6,3.4-18.5,23.5-26.7,30.7
			c-10.3,9-21,17.5-32.5,25.1c2-0.2,4-0.4,5.9-0.7c4.5-0.6,9-1.2,13.5-1.7c5.5-0.7,11.1-1.3,16.6-1.8c2.9-0.3,5.7-0.4,8.6-0.6
			c2.5-0.2,5-0.5,7.5-0.8c1.9-0.2,3.8-0.4,5.7-0.5c5.7-0.4,11.5-0.7,17.2-1.1c8-0.5,15.9-0.9,23.9-1.3c0.2,0,0.3,0,0.5,0
			c22.1-0.7,44.1-0.7,66.2-0.4c5.2,0.1,10.4,0.3,15.6,0.5c6.5,0.3,12.9,0.6,19.4,0.9c7.3,0.4,14.7,0.9,22,1.4
			c5.5,0.4,11,0.9,16.5,1.4c6.9,0.6,13.8,1.2,20.7,2c5.8,0.6,11.5,1.5,17.3,2.3c3.2,0.4,6.3,0.6,9.5,1c5.2,0.7,10.4,1.5,15.6,2.2
			c5.7,0.8,11.4,1.7,17,2.6c6.9,1.1,13.9,2.2,20.7,3.5c9.6,1.8,19.1,3.6,28.6,5.6c12.9,2.8,25.7,5.6,38.5,8.7
			c16,3.8,31.9,8.2,47.5,13.3c0.7,0.2,1.3,0.5,2.3,0.8c-3.3,1.3-6.3,2.4-9.3,3.5c-15.3,5.7-30.7,11.3-46,17.1
			c-2.3,0.9-4.3,0.9-6.6,0.2c-18.2-6-36.7-11-55.4-15.3c-11.7-2.7-23.5-5.3-35.3-7.6c-10.7-2.1-21.5-3.7-32.3-5.5
			c-6.9-1.1-13.8-2.2-20.8-3.2c-7-1-14.1-1.7-21.1-2.5c-5.1-0.6-10.3-1.2-15.4-1.8c-4.2-0.4-8.4-0.7-12.6-1.1
			c-0.7-0.1-1.3-0.2-2-0.3c-5.7-0.4-11.4-0.8-17.2-1.2C333.6,550.4,333.4,550.3,333.1,550.2z"/>
		<path class="st0" d="M91.8,416.2c-0.1-1.2-0.1-2.5-0.2-3.7c-0.1-0.4-0.2-0.7-0.3-1.1c-0.6-8.9-1.1-17.8-0.9-26.8
			c0.1-0.2,0.1-0.4,0.2-0.6c0-2.1,0.1-4.1,0.1-6.2c0.6-0.6,0.6-1.3,0.1-2c0.1-1.7,0.3-3.5,0.4-5.2c0.1-0.7,0.2-1.3,0.3-2
			c0.1-1.1,0.1-2.2,0.2-3.3c0-0.2,0-0.4,0-0.6c0.7-4.9,1.6-9.8,2.2-14.7c1.1-8.3,3.4-16.3,5.7-24.4c4.2-14.6,9.9-28.7,17-42.1
			c7.7-14.5,16.7-28.2,27.5-40.6c4.2-4.8,8.4-9.7,12.9-14.2c14.4-14.3,30.4-26.6,48.1-36.6c15.9-9,32.7-16,50.3-20.9
			c9.5-2.6,19.1-4.6,28.8-5.9c5.6-0.8,11.3-1.3,16.9-1.6c7.1-0.3,14.2-0.5,21.3-0.4c5,0.1,10,0.8,15,1.3c3.1,0.3,6.2,0.5,9.2,0.9
			c8.5,1.1,16.8,2.9,25.1,5.1c13.2,3.4,25.9,8.2,38.2,14c15.9,7.5,30.6,16.9,44.4,27.8c9.8,7.9,18.8,16.6,27.2,26
			c9.9,11,18.6,23,26.1,35.7c4.6,7.7,8.7,15.7,12.3,23.9c5.2,11.9,9.4,24.1,12.5,36.6c1.1,4.6,2.2,9.2,3,13.8
			c0.9,5.2,1.3,10.6,2.1,15.8c1.1,6.5,1.1,13,1.6,19.5c0.5,7.1,0,14.2-0.3,21.3c-0.3,6.7-1.3,13.3-2.2,20c-0.6,4.6-1.4,9.3-2.5,13.8
			c-1.4,6-3,12-4.6,18c-0.1,0.4-0.3,0.9-0.6,1.5c-0.7-0.4-1.2-0.7-1.6-1.1c-15.1-13.1-29.5-26.9-43.3-41.4
			c-11.2-11.8-21.7-24.1-31.8-36.8c-13.6-17.2-26-35.2-37.3-54c-7.2-11.9-14-24-20.3-36.4c-4.8-9.3-9.5-18.7-14.2-28
			c-0.4-0.8-0.8-1.5-1.4-2.6c-0.8,1.6-1.5,2.9-2.1,4.1c-5.5,10.9-10.8,21.9-16.4,32.8c-6.8,13.2-14.3,26.1-23.1,38.1
			c-5.1,7-10.7,13.6-17,19.5c-2.3,2.1-4.7,4.1-7,6.2c-1,0.9-1.8,1-3,0.4c-6.7-3.3-13.6-6.3-20.2-9.9c-9.1-5-18-10.4-27-15.6
			c-0.4-0.2-0.9-0.4-1.5-0.8c-0.5,0.8-1.1,1.5-1.6,2.3c-4.8,7.1-9.4,14.5-14.6,21.4c-13,17.5-29.9,29.3-51.2,34.6
			c-2.9,0.7-5.9,1.4-8.9,2c-1.4,0.3-2.2,1-2.8,2.2c-6.9,13.2-14.4,26.2-23,38.4c-6.3,9-12.9,17.7-20.4,25.7
			c-5.5,5.9-11.2,11.6-17,17.3c-3,2.9-6.2,5.6-9.3,8.3c-0.5,0.4-1,0.7-1.8,1.2c-1.3-2.9-2.5-5.5-3.6-8.2
			c-6.4-15.6-11-31.6-13.9-48.2c-0.8-4.4-1.2-8.8-1.8-13.3C92,416.6,91.9,416.4,91.8,416.2z"/>
		<path class="st0" d="M505.6,506.9c-3.3-1.1-6.7-2.1-10-3.3c-17.4-6.8-33.3-16.2-48.1-27.5c-11.6-8.8-22.3-18.7-32.1-29.4
			c-11.3-12.3-21.5-25.5-29.6-40.2c-2.1-3.9-4-7.9-6-12c1.1-0.5,1.6,0.3,2,0.7c5.5,5.9,11,11.8,16.5,17.7c4.7,4.9,9.5,9.7,14.3,14.5
			c6.2,6.2,12.2,12.4,18.6,18.3c8.1,7.5,16.3,14.8,24.6,22c11.8,10.3,24.7,19.3,37.2,28.7c4,3,7.8,6.1,11.7,9.2
			C505.1,506,505.3,506.5,505.6,506.9L505.6,506.9z"/>
		<path class="st0" d="M455.3,493.9c-41-8.3-65.5-39.3-69.7-67C404,454.4,426.5,477.2,455.3,493.9z"/>
		<path class="st0" d="M6.9,562.6c0.8,0.2,1.6,0.4,2.4,0.5c-1.4,0.2-2.9,0.4-4.3,0.6c0-0.2-0.1-0.4-0.1-0.6
			C5.5,563,6.2,562.8,6.9,562.6z"/>
		<path class="st0" d="M87.9,541.8c-1.1,0.2-2.2,0.4-3.3,0.6l0,0c1.1-0.5,2.3-0.9,3.4-1.4C88,541.3,87.9,541.6,87.9,541.8z"/>
		<path class="st0" d="M181.1,549.2c-1.6,0-3.1,0-4.7,0c0-0.1,0-0.3,0-0.4c1.6,0,3.2,0,4.7,0C181.1,548.9,181.1,549,181.1,549.2z"/>
		<path class="st0" d="M60.6,562.7c1.5,0.1,2.9,0.2,4.4,0.3C63.5,562.9,62,562.8,60.6,562.7z"/>
		<path class="st0" d="M214.6,547.6c1.3-0.1,2.6-0.2,3.9-0.3C217.3,547.4,216,547.5,214.6,547.6z"/>
		<path class="st0" d="M286.2,547.8c1.3,0.1,2.6,0.2,3.9,0.3C288.8,548,287.5,547.9,286.2,547.8z"/>
		<path class="st0" d="M210.8,474.1c0.1-0.8,0.6-1.2,1.4-1.2l0,0c-0.5,0.7-0.9,1.3-1.4,2C210.9,474.6,210.9,474.3,210.8,474.1z"/>
		<path class="st0" d="M90.9,375.9c0.5,0.7,0.5,1.3-0.1,2C90.9,377.2,90.9,376.6,90.9,375.9z"/>
		<path class="st0" d="M105.7,564.6c0.8,0.1,1.7,0.2,2.5,0.3C107.3,564.8,106.5,564.7,105.7,564.6z"/>
		<path class="st0" d="M300.5,548.4c0.7,0.1,1.3,0.2,2,0.2C301.9,548.5,301.2,548.4,300.5,548.4z"/>
		<path class="st0" d="M91.6,368.7c-0.1,0.7-0.2,1.3-0.3,2C91.4,370,91.5,369.4,91.6,368.7z"/>
		<path class="st0" d="M317.8,549.2c0.7,0.1,1.3,0.2,2,0.3C319.2,549.4,318.5,549.3,317.8,549.2z"/>
		<path class="st0" d="M350.9,551.7c0.7,0.1,1.3,0.2,2,0.3C352.3,551.9,351.6,551.8,350.9,551.7z"/>
		<path class="st0" d="M18.8,562.9c0.7-0.1,1.4-0.2,2-0.2C20.1,562.8,19.5,562.9,18.8,562.9z"/>
		<path class="st0" d="M89.3,563.7c0.7,0.1,1.3,0.2,2,0.2C90.7,563.9,90,563.8,89.3,563.7z"/>
		<path class="st0" d="M270.8,547.4c0.5,0.1,1,0.1,1.6,0.2C271.8,547.5,271.3,547.5,270.8,547.4z"/>
		<path class="st0" d="M199.3,548.1c0.5-0.1,1-0.1,1.6-0.2C200.3,547.9,199.8,548,199.3,548.1z"/>
		<path class="st0" d="M77.8,563.2c0.5,0.1,1,0.1,1.6,0.2C78.9,563.3,78.3,563.3,77.8,563.2z"/>
		<path class="st0" d="M91.4,411.4c0.1,0.4,0.2,0.7,0.3,1.1C91.6,412.2,91.5,411.8,91.4,411.4z"/>
		<path class="st0" d="M212.3,472.9c0.1-0.2,0.1-0.4,0.2-0.6C212.4,472.5,212.3,472.7,212.3,472.9
			C212.3,472.9,212.3,472.9,212.3,472.9z"/>
		<path class="st0" d="M505.5,507c0.2,0,0.4,0.1,0.6,0.1C506,507,505.8,507,505.5,507C505.6,506.9,505.5,507,505.5,507z"/>
		<path class="st0" d="M154.1,568.5c0.4,0.1,0.7,0.2,1.1,0.3C154.9,568.6,154.5,568.5,154.1,568.5z"/>
		<path class="st0" d="M144.5,567.6c0.4,0.1,0.7,0.2,1.1,0.2C145.2,567.7,144.9,567.6,144.5,567.6z"/>
		<path class="st0" d="M91.9,364.9c0,0.2,0,0.4,0,0.6C91.9,365.3,91.9,365.1,91.9,364.9z"/>
		<path class="st0" d="M90.7,384.1c-0.1,0.2-0.1,0.4-0.2,0.6C90.6,384.5,90.6,384.3,90.7,384.1z"/>
		<path class="st0" d="M91.8,416.2c0.1,0.2,0.1,0.4,0.2,0.6C92,416.6,91.9,416.4,91.8,416.2z"/>
		<path class="st0" d="M275.6,547.6c0.2,0,0.4,0,0.6,0C276,547.7,275.8,547.6,275.6,547.6z"/>
		<path class="st0" d="M333.1,550.2c0.2,0.1,0.4,0.1,0.6,0.2C333.6,550.4,333.4,550.3,333.1,550.2z"/>
		<path class="st0" d="M284.7,547.8c0.2,0,0.4,0,0.5,0C285.1,547.8,284.9,547.8,284.7,547.8z"/>
		<path class="st0" d="M273.6,547.6c0.2,0,0.4,0,0.6,0C274.1,547.6,273.8,547.6,273.6,547.6z"/>
		<path class="st0" d="M58.6,562.7c0.2,0,0.4,0,0.6,0C59,562.7,58.8,562.7,58.6,562.7z"/>
		<path class="st0" d="M74.5,563.1c0.2,0,0.4,0,0.5,0C74.9,563.1,74.7,563.1,74.5,563.1z"/>
		<path class="st0" d="M187.7,548.5c0.2-0.1,0.4-0.1,0.6-0.2C188.1,548.4,187.9,548.5,187.7,548.5z"/>
		<path class="st0" d="M210.8,474.1c0,0.3,0.1,0.5,0.1,0.8C210.9,474.6,210.9,474.3,210.8,474.1z"/>
		<path class="st0" d="M75.9,563.1c0.2,0,0.4,0,0.6,0C76.3,563.2,76.1,563.1,75.9,563.1z"/>
		<path class="st0" d="M84.6,542.4c0,0.1-0.1,0.1-0.1,0.2C84.5,542.5,84.6,542.5,84.6,542.4C84.6,542.4,84.6,542.4,84.6,542.4z"/>
	</g>
</g>
</svg>
