<?xml version="1.0" encoding="utf-8"?>
<!-- Generator: Adobe Illustrator 26.0.2, SVG Export Plug-In . SVG Version: 6.00 Build 0)  -->
<svg version="1.1" id="Layer_1" xmlns="http://www.w3.org/2000/svg" xmlns:xlink="http://www.w3.org/1999/xlink" x="0px" y="0px"
	 viewBox="0 0 604.4 464.2" style="enable-background:new 0 0 604.4 464.2;" xml:space="preserve">
<style type="text/css">
	.st0{fill:#F3BE69;}
	.st1{fill:#F3BE68;}
	.st2{fill:#F3BF6B;}
	.st3{fill:#F3BF6C;}
	.st4{fill:#F1DFB6;}
	.st5{fill:#F7E4C0;}
	.st6{fill:#EDE0B6;}
	.st7{fill:#EEE2BD;}
	.st8{fill:#EEDCB1;}
	.st9{fill:#EEE5C4;}
	.st10{fill:#F3DEB7;}
	.st11{fill:#EDDDAF;}
	.st12{fill:#EEDBAD;}
	.st13{fill:#EFE3C3;}
	.st14{fill:#F0D7A7;}
	.st15{fill:#F4DEBA;}
	.st16{fill:#F5E5C8;}
</style>
<g>
	<g>
		<path class="st0" d="M328.3,386.7c-4.4-0.2-8.9-0.5-13.3-0.7c-0.7-0.1-1.3-0.2-2-0.3c-5.1-0.2-10.2-0.4-15.3-0.7
			c-0.7-0.1-1.3-0.2-2-0.2c-3.5-0.1-7-0.2-10.4-0.2c-1.3-0.1-2.6-0.2-3.9-0.3c-0.3,0-0.6,0-0.9,0c-0.2,0-0.4,0-0.5,0
			c-2.9,0-5.7-0.1-8.6-0.1c-0.2,0-0.4,0-0.6,0c-0.4,0-0.9,0-1.3,0c-0.2,0-0.4,0-0.6,0c-0.4,0-0.8,0-1.3,0c-0.5-0.1-1-0.1-1.6-0.2
			c-13.7,0-27.3-0.1-41-0.1c-3.8,0-7.5,0.1-11.3,0.1c-1.3,0.1-2.6,0.2-3.9,0.3c-4.6,0.1-9.2,0.2-13.8,0.2c-0.5,0.1-1,0.1-1.6,0.2
			c-3.6,0.1-7.3,0.2-10.9,0.3c-0.2,0.1-0.4,0.1-0.6,0.2c-2.2,0.1-4.4,0.1-6.6,0.2c-1.6,0-3.2,0-4.7,0c0,0.1,0,0.3,0,0.4
			c1.6,0,3.1,0,4.7,0c5.7,0,11.4,0,17,0.1c7.5,0.1,15,0.3,22.5,0.5c7.3,0.2,14.5,0.6,21.8,0.9c5.7,0.3,11.3,0.6,17,1
			c7.7,0.6,15.4,1.2,23.2,1.8c3.3,0.3,6.7,0.6,10,0.9c7.8,0.8,15.5,1.6,23.3,2.5c2.9,0.3,5.8,1,8.7,1.3c3,0.4,6,0.6,9,1
			c6.2,0.8,12.3,1.7,18.5,2.7c8.2,1.3,16.4,2.6,24.5,4.1c8.5,1.5,16.9,3.2,25.4,4.9c17,3.5,33.8,7.5,50.5,12
			c10.2,2.8,20.4,5.8,30.6,9c9.9,3.1,19.7,6.6,29.5,10c0.5,0.2,1,0.4,1.8,0.8c-1,0.4-1.7,0.8-2.4,1.1c-21,7.8-42.1,15.6-63.1,23.4
			c-1.9,0.7-3.6,0.8-5.6,0.2c-15.5-4.6-30.9-9.1-46.4-13.5c-7.9-2.3-15.8-4.4-23.8-6.4c-14.2-3.5-28.5-7-42.8-10.3
			c-12.4-2.8-24.9-5.5-37.4-8c-10.1-2-20.2-3.7-30.4-5.5c-9.8-1.7-19.6-3.5-29.5-5.1c-5.1-0.8-10.3-1.3-15.4-2.1
			c-3.5-0.5-6.9-1.2-10.4-1.6c-3.5-0.5-6.9-0.8-10.4-1.2c-2.2-0.3-4.4-0.7-6.6-1c-7.5-0.9-15-1.9-22.5-2.7c-2.7-0.3-5.4-0.4-8.1-0.6
			c-1.4-0.1-2.8-0.4-4.2-0.6c-0.4-0.1-0.7-0.2-1.1-0.3c-2.8-0.2-5.7-0.4-8.5-0.7c-0.4-0.1-0.7-0.2-1.1-0.2
			c-12.1-0.9-24.3-1.8-36.4-2.7c-0.8-0.1-1.7-0.2-2.5-0.3c-4.8-0.2-9.5-0.4-14.3-0.7c-0.7-0.1-1.3-0.2-2-0.2
			c-3.3-0.1-6.7-0.2-10-0.3c-0.5-0.1-1-0.1-1.6-0.2c-0.4,0-0.9,0-1.3,0c-0.2,0-0.4,0-0.6,0c-0.3,0-0.6,0-0.9,0c-0.2,0-0.4,0-0.5,0
			c-3.2,0-6.3-0.1-9.5-0.1c-1.5-0.1-2.9-0.2-4.4-0.3c-0.5,0-0.9,0-1.4,0c-0.2,0-0.4,0-0.6,0c-12.6,0-25.2,0-37.8,0
			c-0.7,0.1-1.4,0.1-2,0.2c-3.2,0.1-6.3,0.1-9.5,0.2c-0.8-0.2-1.6-0.4-2.4-0.5c17.9-5.7,35.5-12.3,52.5-20.2
			c19.3-9,37.5-19.6,54.6-32.3c7.8-5.8,15.3-12.1,22.5-18.7c15.2-14,28.5-29.6,40.2-46.5c7-10.1,13.3-20.5,19-31.4
			c0.7-1.4,1.6-2.2,3.2-2.5c11.2-2.6,21.5-7.5,31.3-13.5c7.7-4.8,14.7-10.4,21.1-16.8c5.7-5.7,10.8-11.8,15.2-18.5
			c0.5-0.7,1-1.4,1.6-2.3c0.7,0.3,1.3,0.5,1.8,0.8c8.9,5.2,18,10.1,27.4,14.4c4.9,2.2,9.9,4,14.9,6.1c1.9,0.8,3.6,0.5,5.2-0.6
			c4.2-3.1,8.5-6,12.4-9.4c14.8-12.9,26.4-28.4,36.5-45.1c4.3-7.2,8.2-14.6,12.3-22c0.3-0.5,0.5-0.9,1-1.6c0.4,0.7,0.7,1.1,1,1.6
			c10.6,20.7,22.6,40.5,35.8,59.5c7.7,11.1,15.8,21.9,24.3,32.4c8.4,10.3,16.9,20.4,26.1,30c6.4,6.7,12.7,13.5,19.3,20
			c8.3,8.1,16.8,15.9,25.5,23.6c11.2,10,22.9,19.4,34.9,28.5c15.8,12,32.2,23.2,49.1,33.5c4.6,2.8,9.3,5.3,13.9,8c0,0.3,0,0.6,0,1
			c-2.2-0.8-4.4-1.5-6.5-2.3c-16.6-6.9-32.9-14.5-48.9-22.8c-16.8-8.7-33.2-18.2-49.2-28.4c-11.9-7.6-23.4-15.6-34.6-24.1
			c-10.5-8-20.9-16.4-30.5-25.5c-6.9-6.6-13.8-13.1-20.3-20c-13.4-14.2-25.3-29.5-35.5-46.1c-1.4-2.3-2.7-4.6-4.3-7.4
			c-0.7,1.1-1.2,1.8-1.6,2.5c-5.4,9.8-12.8,17.9-21.3,25c-10.7,9-22.6,16.1-35.2,22.1c-6.4,3-6.4,3.1-13.4,1.2
			c-11-3-21.5-7.1-31.2-13.3c-0.3-0.2-0.7-0.4-0.9-0.5c-3.1,3.3-6.1,6.6-9.2,9.6c-7.6,7.4-16.4,12.9-26.1,17.1
			c-4.8,2.1-9.8,3.7-15,4.9c-0.9,0.2-1.7,1.2-2.2,2c-3.2,4.6-6.2,9.3-9.6,13.7c-4.9,6.3-10,12.4-15.2,18.5c-6,7-12.7,13.3-19.5,19.4
			c-8.1,7.2-16.7,13.9-25.6,20.2c-13.1,9.2-26.9,17.3-41.4,24.1c-7.9,3.7-15.9,7-23.9,10.5c-1.1,0.5-2.3,0.9-3.4,1.4
			c0,0-0.1,0.1-0.1,0.1c0-0.1,0.1-0.1,0.1-0.2c1.1-0.2,2.2-0.4,3.3-0.6c15.8-3.5,31.1-8.7,45.9-15.1c14.2-6.1,27.7-13.5,40.5-22.2
			c9.4-6.4,18.4-13.3,26.7-21c2.6-2.5,5.2-5,7.8-7.4c0.3-0.3,0.7-0.6,1.2-0.9c-0.6,3.4-18.5,23.5-26.7,30.7
			c-10.3,9-21,17.5-32.5,25.1c2-0.2,4-0.4,5.9-0.7c4.5-0.6,9-1.2,13.5-1.7c5.5-0.7,11.1-1.3,16.6-1.8c2.9-0.3,5.7-0.4,8.6-0.6
			c2.5-0.2,5-0.5,7.5-0.8c1.9-0.2,3.8-0.4,5.7-0.5c5.7-0.4,11.5-0.7,17.2-1.1c8-0.5,15.9-0.9,23.9-1.3c0.2,0,0.3,0,0.5,0
			c22.1-0.7,44.1-0.7,66.2-0.4c5.2,0.1,10.4,0.3,15.6,0.5c6.5,0.3,12.9,0.6,19.4,0.9c7.3,0.4,14.7,0.9,22,1.4
			c5.5,0.4,11,0.9,16.5,1.4c6.9,0.6,13.8,1.2,20.7,2c5.8,0.6,11.5,1.5,17.3,2.3c3.2,0.4,6.3,0.6,9.5,1c5.2,0.7,10.4,1.5,15.6,2.2
			c5.7,0.8,11.4,1.7,17,2.6c6.9,1.1,13.9,2.2,20.7,3.5c9.6,1.8,19.1,3.6,28.6,5.6c12.9,2.8,25.7,5.6,38.5,8.7
			c16,3.8,31.9,8.2,47.5,13.3c0.7,0.2,1.3,0.5,2.3,0.8c-3.3,1.3-6.3,2.4-9.3,3.5c-15.3,5.7-30.7,11.3-46,17.1
			c-2.3,0.9-4.3,0.9-6.6,0.2c-18.2-6-36.7-11-55.4-15.3c-11.7-2.7-23.5-5.3-35.3-7.6c-10.7-2.1-21.5-3.7-32.3-5.5
			c-6.9-1.1-13.8-2.2-20.8-3.2c-7-1-14.1-1.7-21.1-2.5c-5.1-0.6-10.3-1.2-15.4-1.8c-4.2-0.4-8.4-0.7-12.6-1.1
			c-0.7-0.1-1.3-0.2-2-0.3c-5.7-0.4-11.4-0.8-17.2-1.2C328.7,386.9,328.5,386.8,328.3,386.7z"/>
		<path class="st1" d="M87,252.7c-0.1-1.2-0.1-2.5-0.2-3.7c-0.1-0.4-0.2-0.7-0.3-1.1c-0.6-8.9-1.1-17.8-0.9-26.8
			c0.1-0.2,0.1-0.4,0.2-0.6c0-2.1,0.1-4.1,0.1-6.2c0.6-0.6,0.6-1.3,0.1-2c0.1-1.7,0.3-3.5,0.4-5.2c0.1-0.7,0.2-1.3,0.3-2
			c0.1-1.1,0.1-2.2,0.2-3.3c0-0.2,0-0.4,0-0.6c0.7-4.9,1.6-9.8,2.2-14.7c1.1-8.3,3.4-16.3,5.7-24.4c4.2-14.6,9.9-28.7,17-42.1
			c7.7-14.5,16.7-28.2,27.5-40.6c4.2-4.8,8.4-9.7,12.9-14.2c14.4-14.3,30.4-26.6,48.1-36.6c15.9-9,32.7-16,50.3-20.9
			c9.5-2.6,19.1-4.6,28.8-5.9c5.6-0.8,11.3-1.3,16.9-1.6c7.1-0.3,14.2-0.5,21.3-0.4c5,0.1,10,0.8,15,1.3c3.1,0.3,6.2,0.5,9.2,0.9
			c8.5,1.1,16.8,2.9,25.1,5.1c13.2,3.4,25.9,8.2,38.2,14c15.9,7.5,30.6,16.9,44.4,27.8c9.8,7.9,18.8,16.6,27.2,26
			c9.9,11,18.6,23,26.1,35.7c4.6,7.7,8.7,15.7,12.3,23.9c5.2,11.9,9.4,24.1,12.5,36.6c1.1,4.6,2.2,9.2,3,13.8
			c0.9,5.2,1.3,10.6,2.1,15.8c1.1,6.5,1.1,13,1.6,19.5c0.5,7.1,0,14.2-0.3,21.3c-0.3,6.7-1.3,13.3-2.2,20c-0.6,4.6-1.4,9.3-2.5,13.8
			c-1.4,6-3,12-4.6,18c-0.1,0.4-0.3,0.9-0.6,1.5c-0.7-0.4-1.2-0.7-1.6-1.1c-15.1-13.1-29.5-26.9-43.3-41.4
			c-11.2-11.8-21.7-24.1-31.8-36.8c-13.6-17.2-26-35.2-37.3-54c-7.2-11.9-14-24-20.3-36.4c-4.8-9.3-9.5-18.7-14.2-28
			c-0.4-0.8-0.8-1.5-1.4-2.6c-0.8,1.6-1.5,2.9-2.1,4.1c-5.5,10.9-10.8,21.9-16.4,32.8c-6.8,13.2-14.3,26.1-23.1,38.1
			c-5.1,7-10.7,13.6-17,19.5c-2.3,2.1-4.7,4.1-7,6.2c-1,0.9-1.8,1-3,0.4c-6.7-3.3-13.6-6.3-20.2-9.9c-9.1-5-18-10.4-27-15.6
			c-0.4-0.2-0.9-0.4-1.5-0.8c-0.5,0.8-1.1,1.5-1.6,2.3c-4.8,7.1-9.4,14.5-14.6,21.4c-13,17.5-29.9,29.3-51.2,34.6
			c-2.9,0.7-5.9,1.4-8.9,2c-1.4,0.3-2.2,1-2.8,2.2c-6.9,13.2-14.4,26.2-23,38.4c-6.3,9-12.9,17.7-20.4,25.7
			c-5.5,5.9-11.2,11.6-17,17.3c-3,2.9-6.2,5.6-9.3,8.3c-0.5,0.4-1,0.7-1.8,1.2c-1.3-2.9-2.5-5.5-3.6-8.2
			c-6.4-15.6-11-31.6-13.9-48.2c-0.8-4.4-1.2-8.8-1.8-13.3C87.2,253.1,87.1,252.9,87,252.7z"/>
		<path class="st2" d="M500.8,343.4c-3.3-1.1-6.7-2.1-10-3.3c-17.4-6.8-33.3-16.2-48.1-27.5c-11.6-8.8-22.3-18.7-32.1-29.4
			c-11.3-12.3-21.5-25.5-29.6-40.2c-2.1-3.9-4-7.9-6-12c1.1-0.5,1.6,0.3,2,0.7c5.5,5.9,11,11.8,16.5,17.7c4.7,4.9,9.5,9.7,14.3,14.5
			c6.2,6.2,12.2,12.4,18.6,18.3c8.1,7.5,16.3,14.8,24.6,22c11.8,10.3,24.7,19.3,37.2,28.7c4,3,7.8,6.1,11.7,9.2
			C500.3,342.5,500.5,343,500.8,343.4L500.8,343.4z"/>
		<path class="st3" d="M450.5,330.4c-41-8.3-65.5-39.3-69.7-67C399.2,290.9,421.7,313.7,450.5,330.4z"/>
		<path class="st4" d="M2.1,399.1c0.8,0.2,1.6,0.4,2.4,0.5c-1.4,0.2-2.9,0.4-4.3,0.6c0-0.2-0.1-0.4-0.1-0.6
			C0.7,399.4,1.4,399.3,2.1,399.1z"/>
		<path class="st5" d="M83.1,378.3c-1.1,0.2-2.2,0.4-3.3,0.6l0,0c1.1-0.5,2.3-0.9,3.4-1.4C83.2,377.8,83.1,378,83.1,378.3z"/>
		<path class="st6" d="M176.3,385.6c-1.6,0-3.1,0-4.7,0c0-0.1,0-0.3,0-0.4c1.6,0,3.2,0,4.7,0C176.3,385.4,176.3,385.5,176.3,385.6z"
			/>
		<path class="st7" d="M55.8,399.2c1.5,0.1,2.9,0.2,4.4,0.3C58.7,399.4,57.2,399.3,55.8,399.2z"/>
		<path class="st8" d="M209.8,384.1c1.3-0.1,2.6-0.2,3.9-0.3C212.5,383.9,211.1,384,209.8,384.1z"/>
		<path class="st9" d="M281.4,384.3c1.3,0.1,2.6,0.2,3.9,0.3C284,384.5,282.7,384.4,281.4,384.3z"/>
		<path class="st9" d="M206,310.6c0.1-0.8,0.6-1.2,1.4-1.2l0,0c-0.5,0.7-0.9,1.3-1.4,2C206.1,311.1,206.1,310.8,206,310.6z"/>
		<path class="st10" d="M86.1,212.4c0.5,0.7,0.5,1.3-0.1,2C86.1,213.7,86.1,213.1,86.1,212.4z"/>
		<path class="st11" d="M100.9,401.1c0.8,0.1,1.7,0.2,2.5,0.3C102.5,401.3,101.7,401.2,100.9,401.1z"/>
		<path class="st6" d="M295.7,384.8c0.7,0.1,1.3,0.2,2,0.2C297.1,385,296.4,384.9,295.7,384.8z"/>
		<path class="st4" d="M86.8,205.2c-0.1,0.7-0.2,1.3-0.3,2C86.6,206.5,86.7,205.9,86.8,205.2z"/>
		<path class="st12" d="M313,385.7c0.7,0.1,1.3,0.2,2,0.3C314.4,385.9,313.7,385.8,313,385.7z"/>
		<path class="st11" d="M346.1,388.2c0.7,0.1,1.3,0.2,2,0.3C347.5,388.4,346.8,388.3,346.1,388.2z"/>
		<path class="st11" d="M14,399.4c0.7-0.1,1.4-0.2,2-0.2C15.3,399.3,14.7,399.4,14,399.4z"/>
		<path class="st6" d="M84.5,400.2c0.7,0.1,1.3,0.2,2,0.2C85.9,400.3,85.2,400.3,84.5,400.2z"/>
		<path class="st13" d="M266,383.9c0.5,0.1,1,0.1,1.6,0.2C267,384,266.5,384,266,383.9z"/>
		<path class="st12" d="M194.5,384.5c0.5-0.1,1-0.1,1.6-0.2C195.5,384.4,195,384.5,194.5,384.5z"/>
		<path class="st8" d="M73,399.7c0.5,0.1,1,0.1,1.6,0.2C74,399.8,73.5,399.8,73,399.7z"/>
		<path class="st14" d="M86.6,247.9c0.1,0.4,0.2,0.7,0.3,1.1C86.8,248.7,86.7,248.3,86.6,247.9z"/>
		<path class="st9" d="M207.5,309.4c0.1-0.2,0.1-0.4,0.2-0.6C207.6,309,207.5,309.2,207.5,309.4
			C207.5,309.4,207.5,309.4,207.5,309.4z"/>
		<path class="st2" d="M500.7,343.5c0.2,0,0.4,0.1,0.6,0.1C501.2,343.5,501,343.5,500.7,343.5C500.8,343.4,500.7,343.5,500.7,343.5z
			"/>
		<path class="st6" d="M149.3,405c0.4,0.1,0.7,0.2,1.1,0.3C150.1,405.1,149.7,405,149.3,405z"/>
		<path class="st4" d="M139.7,404c0.4,0.1,0.7,0.2,1.1,0.2C140.4,404.2,140.1,404.1,139.7,404z"/>
		<path class="st15" d="M87.1,201.4c0,0.2,0,0.4,0,0.6C87,201.8,87.1,201.6,87.1,201.4z"/>
		<path class="st15" d="M85.9,220.6c-0.1,0.2-0.1,0.4-0.2,0.6C85.8,221,85.8,220.8,85.9,220.6z"/>
		<path class="st16" d="M87,252.7c0.1,0.2,0.1,0.4,0.2,0.6C87.2,253.1,87.1,252.9,87,252.7z"/>
		<path class="st13" d="M270.8,384.1c0.2,0,0.4,0,0.6,0C271.2,384.1,271,384.1,270.8,384.1z"/>
		<path class="st14" d="M328.3,386.7c0.2,0.1,0.4,0.1,0.6,0.2C328.7,386.9,328.5,386.8,328.3,386.7z"/>
		<path class="st9" d="M279.9,384.3c0.2,0,0.4,0,0.5,0C280.3,384.3,280.1,384.3,279.9,384.3z"/>
		<path class="st13" d="M268.8,384.1c0.2,0,0.4,0,0.6,0C269.3,384.1,269,384.1,268.8,384.1z"/>
		<path class="st7" d="M53.8,399.2c0.2,0,0.4,0,0.6,0C54.2,399.2,54,399.2,53.8,399.2z"/>
		<path class="st8" d="M69.7,399.6c0.2,0,0.4,0,0.5,0C70,399.6,69.9,399.6,69.7,399.6z"/>
		<path class="st6" d="M182.9,385c0.2-0.1,0.4-0.1,0.6-0.2C183.3,384.9,183.1,385,182.9,385z"/>
		<path class="st0" d="M206,310.6c0,0.3,0.1,0.5,0.1,0.8C206.1,311.1,206.1,310.8,206,310.6z"/>
		<path class="st8" d="M71.1,399.6c0.2,0,0.4,0,0.6,0C71.5,399.7,71.3,399.6,71.1,399.6z"/>
		<path class="st5" d="M79.8,378.9c0,0.1-0.1,0.1-0.1,0.2C79.7,379,79.8,379,79.8,378.9C79.8,378.9,79.8,378.9,79.8,378.9z"/>
	</g>
</g>
</svg>
